<svg xmlns="http://www.w3.org/2000/svg" viewBox="0 0 500 500"><defs><style>.cls-1,.cls-3{isolation:isolate;}.cls-2{fill:#24285b;}.cls-3{opacity:0.09;}.cls-4{fill:#ffbaad;}.cls-5{fill:#ff9e91;}.cls-6{fill:#efe7e2;}.cls-10,.cls-6{mix-blend-mode:multiply;}.cls-7{fill:#a45321;}.cls-8{opacity:0.5;mix-blend-mode:soft-light;}.cls-9{fill:#fff;}.cls-10{opacity:0.1;}.cls-11{fill:#afa9a7;}.cls-12{fill:#0099f5;}.cls-13{fill:#f9bb0d;}.cls-14{fill:#ffd44d;}.cls-15{fill:#0086f4;}</style></defs><title>Internet security</title><g class="cls-1"><g id="Layer_1" data-name="Layer 1"><path class="cls-2" d="M386.82,373.57v14.15H112.7c-6.76-64.65,53.58-104.08,112.61-103.93,30.48.34,73.28-3.09,101.31,10.48C358.83,307.39,387.09,337.26,386.82,373.57Z"/><path class="cls-3" d="M386.82,373.57c.27-36.31-28-66.18-60.2-79.3-28-13.57-70.83-10.14-101.31-10.48a134.51,134.51,0,0,0-53.39,10.92A134.9,134.9,0,0,1,185.4,294c30.48.34,73.28-3.09,101.31,10.48,32.21,13.12,60.47,43,60.19,79.3v3.91h39.92Z"/><path class="cls-4" d="M249.77,322.12a30.27,30.27,0,0,1-30.28-30.28v-80.5c.67-39.78,59.88-39.82,60.56,0v80.5A30.28,30.28,0,0,1,249.77,322.12Z"/><path class="cls-5" d="M278.58,301.15c-8.6,27.81-49.3,27.48-57.65,0C233.18,318.74,265.82,319.35,278.58,301.15Z"/><path class="cls-4" d="M189.49,181.59c-1.42-7.17-8.25-13.85-17.63-11.8s-9.39,10.79-8,18c.08.37,4.69,19.78,7.4,23.86s6.64,11.85,13.22,9.64c4.36-1.47,6.93-9.23,8-14.83S189.49,181.59,189.49,181.59Z"/><path class="cls-4" d="M308.75,181.3c1.43-7.18,8.26-13.85,17.63-11.8s10.29,11,8.87,18.21c-.08.38-5.06,18.34-7.39,23.87-1.93,4.56-7.16,12.57-14,9.77-4.26-1.75-7.09-9.61-8.12-15.21S308.75,181.3,308.75,181.3Z"/><path class="cls-4" d="M317.9,127.6c0-31.14-19.29-62.38-70.36-62.38s-69.62,34.19-69.62,65.33c0,1.64-.15,86.31,9.76,105.75s37.22,39.29,61.6,39.38c26.66.1,50.61-17,61.81-39.38S317.9,127.6,317.9,127.6Z"/><path class="cls-5" d="M197.58,134.61c.43.32.83.59,1.34,1,1.4,1.32-5.61,17-3.57,17,10.11,2.13,22.25-19.78,32.14-16.71,17.4,5.41,50.13,49.28,82.26,48.42,8.44-8.14,8.15-56.71,8.15-56.71,0-31.14-19.29-62.38-70.36-62.38-42.32,0-62.25,23.48-67.86,49.24C187.58,117.83,194.19,124.36,197.58,134.61Z"/><path class="cls-6" d="M308.78,240.42c.11-.18.24-.34.35-.52-.57.42-1.17.8-1.76,1.2C307.85,240.89,308.31,240.64,308.78,240.42Z"/><path class="cls-5" d="M260.85,269.11c-24.38-.09-51.68-19.93-61.59-39.38S189.5,125.62,189.5,124c0-14,3.88-28.42,12.6-40.22a64.69,64.69,0,0,1,3.2-7.48c-19.48,12.59-27.38,34-27.38,54.27,0,1.64-.15,86.31,9.76,105.75s37.22,39.29,61.6,39.38c13.82.05,26.83-4.64,37.8-12.18A64.46,64.46,0,0,1,260.85,269.11Z"/><path class="cls-7" d="M329.33,120.18C323,85.9,295.05,61,249.28,61.33s-75.65,28.26-81.64,60c-2.57,13.59-4.56,39.42-3.5,54.82,7.72-6.35,10.91-7.18,14.65-5.69,2.56,28,8.65,27.58,8.65,27.58s.57-19,1.81-31.58,21.81-14.85,32.1-36.57c32.56-1.42,53.13,40.29,88.84,42.57-3.53,20.65,4.29,28.86,4.29,28.86s.83-17.05,3.71-25.14c2.51-7,10-7,13.7-4C333.67,159.35,332.8,139.12,329.33,120.18Z"/><g class="cls-8"><path class="cls-9" d="M329.33,120.18C323,85.9,295.05,61,249.28,61.33c-40.07.25-68.07,21.83-78.37,48.57,12.84-22,38.58-38.5,73.57-38.72,45.78-.28,73.77,24.57,80.06,58.85a207.1,207.1,0,0,1,3.4,40.4,8.79,8.79,0,0,1,3.95,1.75C333.67,159.35,332.8,139.12,329.33,120.18Z"/></g><g class="cls-10"><path class="cls-11" d="M221.35,113.59c-10.29,21.73-43.43,42.2-57.21,46.26,0-.7-.06-1.53-.1-2.28a185.35,185.35,0,0,0,.1,18.57c7.72-6.35,10.91-7.18,14.65-5.69,2.56,28,8.65,27.58,8.65,27.58s.57-19,1.81-31.58,21.81-14.85,32.1-36.57c32.42-1.42,53,39.91,88.4,42.51C283.62,163.32,253.91,112.18,221.35,113.59Z"/></g><path class="cls-12" d="M373.94,365.89c-26.65-8.89-45.65-26.21-45.65-26.21s-19,17.32-45.65,26.21c0,0-1.6,56.24,45.65,73.83C375.54,422.13,373.94,365.89,373.94,365.89Z"/><path class="cls-2" d="M330.32,366.54h-4.06A10.27,10.27,0,0,0,316,376.8v8.13a2.13,2.13,0,1,0,4.26,0V376.8a6,6,0,0,1,6-6h4.06a6,6,0,0,1,6,6V385h4.26V376.8A10.27,10.27,0,0,0,330.32,366.54Z"/><rect class="cls-13" x="310.84" y="384.09" width="34.89" height="28.77" rx="3"/><rect class="cls-14" x="310.84" y="384.09" width="30.77" height="25.62" rx="3"/><path class="cls-2" d="M332.31,396a4.16,4.16,0,1,0-6.47,3.45v2.49a2.45,2.45,0,1,0,4.9,0v-2.68A4.16,4.16,0,0,0,332.31,396Z"/><path class="cls-15" d="M373.94,365.89c-26.65-8.89-45.65-26.21-45.65-26.21s-2.32,2.12-6.48,5.25c7.74,5.83,21.83,15.18,39.17,21,0,0,1.45,51-39.17,71a68.27,68.27,0,0,0,6.48,2.79C375.54,422.13,373.94,365.89,373.94,365.89Z"/></g></g></svg>